<svg id="Layer_1" data-name="Layer 1" xmlns="http://www.w3.org/2000/svg" xmlns:xlink="http://www.w3.org/1999/xlink" viewBox="0 0 100 100"><defs><style>.cls-1,.cls-2,.cls-3{fill:none;}.cls-2{clip-path:url(#clip-path);}.cls-3{clip-path:url(#clip-path-2);}.cls-4{clip-path:url(#clip-path-3);}.cls-5{clip-path:url(#clip-path-4);}.cls-6{fill:#054080;}.cls-6,.cls-7{fill-rule:evenodd;}.cls-8{clip-path:url(#clip-path-5);}.cls-9{clip-path:url(#clip-path-6);}.cls-10{clip-path:url(#clip-path-7);}</style><clipPath id="clip-path"><polygon class="cls-1" points="-29.06 -138 -27.99 -138 -29.06 -136.94 -29.06 -138"/></clipPath><clipPath id="clip-path-2"><polygon class="cls-1" points="-245.36 -35.33 -244.66 -35.33 -245.36 -34.63 -245.36 -35.33"/></clipPath><clipPath id="clip-path-3"><rect class="cls-1" x="109.09" y="0.09" width="99.81" height="99.81"/></clipPath><clipPath id="clip-path-4"><polygon class="cls-2" points="-31.18 -140.13 -32.24 -140.13 -31.18 -141.19 -31.18 -140.13"/></clipPath><clipPath id="clip-path-5"><rect class="cls-1" x="0.09" y="0.09" width="99.81" height="99.81"/></clipPath><clipPath id="clip-path-6"><rect class="cls-1" x="-109.91" y="0.09" width="99.81" height="99.81"/></clipPath><clipPath id="clip-path-7"><polygon class="cls-3" points="-246.76 -36.73 -247.46 -36.73 -246.76 -37.43 -246.76 -36.73"/></clipPath></defs><title>Artboard 1 copy 8</title><g class="cls-4"><g class="cls-5"><path id="SvgjsPath1004" class="cls-6" d="M-15.24-91.65A32.41,32.41,0,0,1,17.3-124.19H516.2V407.26H-15.24Z"/></g><path id="r8C7" class="cls-7" d="M109.16,49V1.37A31.88,31.88,0,0,0,141,33.25H93.45A31.88,31.88,0,0,0,125.34,1.37h0V49A31.88,31.88,0,0,0,93.45,17.07H141A31.88,31.88,0,0,0,109.16,49Z"/><path id="r10C7" class="cls-7" d="M109.16,82.67V35.09A31.88,31.88,0,0,0,141,67H93.45a31.88,31.88,0,0,0,31.89-31.88V82.67A31.88,31.88,0,0,0,93.45,50.79H141A31.88,31.88,0,0,0,109.16,82.67Z"/></g><g class="cls-8"><path id="r3C12" class="cls-7" d="M17,.12H33.68V8.49a8.36,8.36,0,0,1-8.36,8.36H17Z"/><path id="r3C13" class="cls-7" d="M33.55.12H50.29V16.85H33.55Z"/><path id="r3C14" class="cls-7" d="M50.16.12H66.89V8.49a8.36,8.36,0,0,1-8.37,8.36h0a8.36,8.36,0,0,1-8.36-8.36Z"/><path id="r3C15" class="cls-7" d="M66.76.12H83.5V8.49a8.36,8.36,0,0,1-8.37,8.36h0a8.36,8.36,0,0,1-8.37-8.36Z"/><path id="r3C16" class="cls-7" d="M91.73.12h0a8.37,8.37,0,0,1,8.37,8.37v8.36H83.36V8.49A8.37,8.37,0,0,1,91.73.12Z"/><path id="r4C13" class="cls-7" d="M33.55,16.72H50.29V33.46H33.55Z"/><path id="r4C16" class="cls-7" d="M83.36,16.72H100.1V33.46H83.36Z"/><path id="r5C11" class="cls-7" d="M-.1,33.33H8.49a8.48,8.48,0,0,1,8.59,8.36h0a8.49,8.49,0,0,1-8.59,8.37H-.1Z"/><path id="r5C12" class="cls-7" d="M25.32,33.33h0a8.36,8.36,0,0,1,8.36,8.36v8.37H17V41.69A8.36,8.36,0,0,1,25.32,33.33Z"/><path id="r5C13" class="cls-7" d="M33.55,33.33H50.29v8.36a8.37,8.37,0,0,1-8.37,8.37h0a8.37,8.37,0,0,1-8.37-8.37h0Z"/><path id="r5C14" class="cls-7" d="M58.52,33.33h8.37V50.06H50.16V41.69A8.36,8.36,0,0,1,58.52,33.33Z"/><path id="r6C12" class="cls-7" d="M17,49.93H33.68V66.66H17Z"/><path id="r6C14" class="cls-7" d="M50.16,49.93H66.89V66.66H50.16Z"/><path id="r6C16" class="cls-7" d="M83.36,49.93H100.1V66.66H83.36Z"/><path id="r7C12" class="cls-7" d="M17,66.53H33.68V83.27H17Z"/><path id="r7C15" class="cls-7" d="M66.76,66.53h8.37A8.37,8.37,0,0,1,83.5,74.9h0a8.37,8.37,0,0,1-8.37,8.37H66.76Z"/><path id="r7C16" class="cls-7" d="M83.36,66.53H100.1V83.27H91.73a8.37,8.37,0,0,1-8.37-8.37h0Z"/><path id="r8C11" class="cls-7" d="M8.71,83.14h0a8.36,8.36,0,0,1,8.37,8.36h0v8.37H.34V91.5a8.36,8.36,0,0,1,8.37-8.36Z"/><path id="r8C12" class="cls-7" d="M17,83.14H33.68V99.87H17Z"/><path id="r8C13" class="cls-7" d="M41.92,83.14h0a8.36,8.36,0,0,1,8.37,8.36h0a8.37,8.37,0,0,1-8.37,8.37h0a8.37,8.37,0,0,1-8.37-8.37h0a8.36,8.36,0,0,1,8.37-8.36Z"/><path id="r8C14" class="cls-7" d="M58.52,83.14h8.37V99.87H50.16V91.5a8.36,8.36,0,0,1,8.36-8.36Z"/></g><g class="cls-9"><g class="cls-10"><path id="SvgjsPath1004-2" data-name="SvgjsPath1004" class="cls-6" d="M-236.27-4.85a21.31,21.31,0,0,1,21.39-21.39H113.2V323.23H-236.27Z"/></g></g></svg>