<svg id="Layer_1" data-name="Layer 1" xmlns="http://www.w3.org/2000/svg" viewBox="0 0 100 100"><defs><style>.cls-1,.cls-2,.cls-3,.cls-4,.cls-5{fill-rule:evenodd;}.cls-2{fill:#494949;}.cls-3{fill:#8d8d8d;}.cls-4{fill:#dedede;}.cls-5{fill:#fff;}</style></defs><title>Artboard 1</title><g id="svgg"><path id="path0" class="cls-1" d="M11,.32a1,1,0,0,0,.15.52,2.82,2.82,0,0,1,.29.71,2,2,0,0,0,.35.69,4.37,4.37,0,0,1,.76,1.91,3.59,3.59,0,0,0,.35,1A3.38,3.38,0,0,1,13.56,7c.09.54.19,1.11.21,1.26.1.57.36,0,.62-1.47a2.71,2.71,0,0,1,.46-1.25,7.4,7.4,0,0,0,.45-1.25A8.43,8.43,0,0,1,16,2.6a6,6,0,0,0,.49-1.07,2.7,2.7,0,0,1,.41-.78A.87.87,0,0,0,17.1.24V0H11V.32m17.5,0a.76.76,0,0,0,.19.47,3,3,0,0,1,.47.88,7.32,7.32,0,0,0,.55,1.12,5.06,5.06,0,0,1,.55,1.48c.36,1.41.43,1.23.54-1.23A16.42,16.42,0,0,1,31,.8c.25-.81.27-.8-1.19-.8H28.5V.28m21.19,0a2.13,2.13,0,0,0,.17.67,6.53,6.53,0,0,1,.23,1.84c0,1.21.09,1.5.26,1.74l.19.3.12-.45L51,3.27a2.18,2.18,0,0,1,.47-1,3,3,0,0,0,.49-.95A2,2,0,0,1,52.2.65a.54.54,0,0,0,.09-.36V0h-2.6V.29m14,.06A1,1,0,0,0,64,1a3.75,3.75,0,0,1,.86,1.68A6.4,6.4,0,0,0,65.34,4,7.35,7.35,0,0,1,66,6c.13.6.18.08.26-2.56,0-1.5.12-2.9.15-3.11L66.52,0H63.69V.35m21,0a1,1,0,0,1-.24.63l-.24.28-1.88.05c-2.42.07-3,.31-1.54.6a3.15,3.15,0,0,1,1.69.66,1.87,1.87,0,0,0,.85.44c1.34.42,1.52.82,1.49,3.3s-.24,3.53-.74,4.06c-.15.16-.23.48-.34,1.41A4.13,4.13,0,0,1,83,14.13a4,4,0,0,0-.45,1c-.13.46-.23.61-.49.77a3.18,3.18,0,0,0-.52.38A3.48,3.48,0,0,1,80,17a7.52,7.52,0,0,0-1.06.42,17.06,17.06,0,0,1-2.25.58c-1,.22-2.18.46-2.54.55-2.44.6-4.12.15-4.55-1.24a3,3,0,0,0-.4-.8,3.76,3.76,0,0,1-.75-1.88c-.15-.82-.18-.86-.53-.73s-.47.59-.47,2c0,2.19-.57,3-2.15,3-2.12,0-3.57.44-2.28.69a4.28,4.28,0,0,1,2,.7,2.6,2.6,0,0,0,.57.36,2.44,2.44,0,0,1,1.32.73c.6,1,.39,4.95-.37,7.07a13.62,13.62,0,0,0-.51,1.8,5.2,5.2,0,0,1-.81,2.07,2.48,2.48,0,0,0-.38.65,1.14,1.14,0,0,1-.77.77,2.44,2.44,0,0,0-.66.39,5,5,0,0,1-2,.77,16.39,16.39,0,0,0-1.81.53c-2.33.84-6.48,1-7.26.25a2.47,2.47,0,0,1-.44-.87,3.2,3.2,0,0,0-.44-.91c-.42-.48-.46-.58-.66-1.56a2.43,2.43,0,0,0-.39-1.11c-.3-.21-.48-.73-.69-2s-.25-1.43-.43-1.1-1.14,3.08-1.43,4.09a3.47,3.47,0,0,1-.4.93,4.79,4.79,0,0,0-.45,1c-.27.84-1.1,1.89-1.49,1.91l-.8.1a16.47,16.47,0,0,1-6.24-.82,6,6,0,0,0-1.24-.35,4.37,4.37,0,0,1-2.09-.74,2.77,2.77,0,0,0-.68-.43A2.43,2.43,0,0,1,33,31.9a4,4,0,0,0-.41-.9A4.32,4.32,0,0,1,32,28.82a10.69,10.69,0,0,0-.31-1.45A7.4,7.4,0,0,1,31,24.91c-.27-2.7.09-3.73,1.44-4.11a2.67,2.67,0,0,0,.85-.45,4.76,4.76,0,0,1,2-.76c1-.22.34-.55-1.37-.64-2.81-.15-3.06-.4-3.16-3.3-.08-2.45-.18-2.73-.49-1.44A4,4,0,0,1,29.6,16a3.28,3.28,0,0,0-.39.85A2.28,2.28,0,0,1,28,18.36l-.67.49-4.42,0c-4.87,0-4.58.06-5.57-.62a2.2,2.2,0,0,1-1-1.48,3.36,3.36,0,0,0-.44-.93A5.14,5.14,0,0,1,15.2,14c-.25-1.21-.41-.6-.49,1.89-.07,2-.08,2.08-.66,2.57s-.84.45-2.35.53a3.59,3.59,0,0,0-1.73.28l-.39.21,1.11.27c1,.25,1.71.57,1.71.78a1.88,1.88,0,0,0,.69.3c1.61.49,1.63.55,1.59,6.47,0,5.11,0,4.9-.87,5.37a3,3,0,0,0-.57.37,5.24,5.24,0,0,1-1.69.79,4.57,4.57,0,0,0-1.05.43,6.3,6.3,0,0,1-2.1.68c-.17,0-.21,0-.14.1a19,19,0,0,0,2.8.19c3.79.11,3.56,0,3.66,2.69.1,3,.26,3.21.74,1.07a2.58,2.58,0,0,1,.54-1.1,2.81,2.81,0,0,0,.35-.7c.58-1.74,1.23-2,4.3-1.84a5.12,5.12,0,0,1,2.73.62,3,3,0,0,0,1.32.36c1.6.2,2,.3,2.38.64a2.82,2.82,0,0,0,1.1.5,2.46,2.46,0,0,1,.91.4l.55.61a3.28,3.28,0,0,1,.63,1.25,4.91,4.91,0,0,0,.49,1.13c.23.28.26.39.68,2.53a16.13,16.13,0,0,0,.44,1.75,11,11,0,0,1,.37,4.13,2.13,2.13,0,0,1-1.4,1.22.81.81,0,0,0-.51.31,2.58,2.58,0,0,1-1.64.74,3,3,0,0,0-1.2.47,4.23,4.23,0,0,1-2.34.67c-1,.08-1.19.2-1.31.8s-.11.45.76.57c2,.28,2,.28,2.56.67a2.28,2.28,0,0,0,1.22.5,2.77,2.77,0,0,1,1.7.68,1.87,1.87,0,0,0,.73.42c1.36.45,1.77,1.5,1.42,3.71a7,7,0,0,1-.45,2,12.77,12.77,0,0,0-.59,2.64,3,3,0,0,1-.55,1.46,6,6,0,0,0-.39,1,2.77,2.77,0,0,1-2,2.15,2.15,2.15,0,0,0-1,.46,4.29,4.29,0,0,1-2.4.69c-.85.09-1.11.16-1.37.37-.51.38-1.15.53-2.74.62-3.16.18-3.86-.11-4.36-1.78a1.89,1.89,0,0,0-.28-.63,5,5,0,0,1-.93-2.45c-.19-.84-.43.55-.43,2.49,0,2.57.35,2.39-4.83,2.49-2.2,0-4,.1-4,.13s.08.06.24.06c1.79,0,3.48.37,4,.86a1.42,1.42,0,0,0,.8.34,3.14,3.14,0,0,1,1.75.64,2,2,0,0,0,.62.41c1.51.46,1.45.22,1.45,5.89s0,5.7-1.52,6.07a2.2,2.2,0,0,0-.78.39c-.43.4-.64.49-1.67.7s-1,.19-.84.64,0,.38,1.71.46c3,.14,3.08.23,3.17,2.83a17.75,17.75,0,0,0,.16,2.22l.09.3.11-.28a7.75,7.75,0,0,0,.27-.93,2.49,2.49,0,0,1,.59-1.33,3.61,3.61,0,0,0,.42-.94c.57-1.72.9-1.82,6.39-1.82s6,.13,6.55,2a1.84,1.84,0,0,0,.35.7c.29.31.37.51.66,1.7l.23.93.12-.34a9.37,9.37,0,0,0,.13-2c0-1.94.14-2.43.67-2.62A5.65,5.65,0,0,1,34,88.09c1.37,0,1.7-.12,1.8-.64,0-.23,0-.26-.46-.36-1.42-.3-1.76-.43-2.1-.75a2,2,0,0,0-.79-.43,2.53,2.53,0,0,1-1.4-1,11.54,11.54,0,0,1,.38-5.07A6.23,6.23,0,0,0,32,77.69a3.63,3.63,0,0,1,.6-2A2.8,2.8,0,0,0,33,74.8a2.45,2.45,0,0,1,1.73-1.86,2,2,0,0,0,.68-.31c.68-1.18,8.1-1.32,9.68-.18a4.48,4.48,0,0,0,1,.49c.51.15,1,.46,1,.65a2,2,0,0,0,.34.49,4.2,4.2,0,0,1,.61,1.24c.15.45.37,1.05.5,1.32a16.08,16.08,0,0,1,.6,2.3l.55,2.7c.5,2.41,0,3.89-1.28,4.25a2.39,2.39,0,0,0-.7.33,3.24,3.24,0,0,1-1.8.78c-.78.16-1,.25-1.27.49-.43.4-2.35.76-4.44.81-.46,0-.46,0,.14.1a6.08,6.08,0,0,1,1.6.54,6.28,6.28,0,0,0,1.65.56,6.17,6.17,0,0,1,2.26.76,4.63,4.63,0,0,0,1.13.45,4.06,4.06,0,0,1,1.13.46,5.86,5.86,0,0,1,1.32,1.09c.6.72.62,2.14.07,4.33-.19.75-.61,3-.61,3.19V100H66.37l.07-.83A4.27,4.27,0,0,1,67,97a3.17,3.17,0,0,0,.44-1.71c.17-1.38.29-1.79.69-2.15a.88.88,0,0,0,.26-.37,2.46,2.46,0,0,1,1.29-2,2.9,2.9,0,0,0,.74-.41,4,4,0,0,1,1.89-.74,15.06,15.06,0,0,0,1.62-.36,6.1,6.1,0,0,1,3.66,0,14,14,0,0,0,1.58.36,4.49,4.49,0,0,1,2,.86.88.88,0,0,0,.41.21c.52.12.79.42,1,1.17a3.4,3.4,0,0,0,.5,1c.4.45.47.69.64,2.09.12,1.06.17,1.28.38,1.5a4.55,4.55,0,0,1,.64,2.51l.06,1H100V0h-.55c-.52,0-.55,0-.55.26,0,1-.14,1-5.24,1-5.4,0-5.86,0-5.86-.95V0h-3.1V.34M0,71.94c0,.54.17.58.86.25a7.55,7.55,0,0,1,2.64-.46l1-.08-1-.07c-.58,0-1.6-.07-2.28-.07L0,71.49v.45m0,16.6v1.35H.24a2.4,2.4,0,0,0,.64-.14A8,8,0,0,1,2,89.5a3.14,3.14,0,0,0,.83-.19,8.24,8.24,0,0,1,2.64-.94h.58l-.5,0c-3-.19-4.23-.42-4.65-.85a.88.88,0,0,0-.59-.28H0v1.35m6.62-.18a3.14,3.14,0,0,0,.75,0c.21,0,0,0-.37,0s-.58,0-.38,0m31.55,0a2,2,0,0,0,.6,0c.15,0,0,0-.32,0s-.46,0-.28,0m-6.7,10.39c-.28,1-.25,1.24.19,1.24H32L32,99.51a7.18,7.18,0,0,0-.2-.92l-.13-.45-.17.61m-17.76.11c-.2,1-.17,1.13.24,1.13s.45-.18.19-1.12c-.21-.72-.28-.73-.43,0"/><path id="path1" class="cls-2" d="M9.7.27c0,.21.09.34.35.52,1.09.74,3,6,3.6,9.76.09.6.22,1.32.3,1.6a20.49,20.49,0,0,1,.2,2.8c.1,3.33.22,3.24-4.48,3.26-1.66,0-3.16.05-3.32.09s-.23.08-.14.09a5.1,5.1,0,0,1,1.88.89,3.06,3.06,0,0,0,1.31.61A28.1,28.1,0,0,1,13,21.38a2.63,2.63,0,0,1,.75.75l.4.59,0,3.83c0,4.27,0,4.74-.5,5.3a12.09,12.09,0,0,1-3.47,1.75,10.75,10.75,0,0,0-1.3.49,7.61,7.61,0,0,1-2.49.66c-2,.36-.3.71,4,.81,3.9.09,3.68-.08,3.8,3.14.08,2.21.22,3.17.59,3.87l.19.37.1-.45c.06-.24.29-1,.51-1.59,1.83-5.37,2.33-5.75,6.22-4.74.55.14,1.58.36,2.29.49a9.21,9.21,0,0,1,2.07.58c.43.19,1.09.44,1.46.57,1.54.5,2.71,3,3.51,7.4.69,3.79.56,4.39-1,5a4.32,4.32,0,0,0-.79.39,3.5,3.5,0,0,1-1.46.61,8,8,0,0,0-1.41.51,7.26,7.26,0,0,1-2.05.6c-2,.37-1.93.33-2,.88-.14.75-.09.77,2.38,1.22a6.09,6.09,0,0,1,1.69.55,4.55,4.55,0,0,0,1,.39,5.28,5.28,0,0,1,1.77.64,6.16,6.16,0,0,0,1,.51c1.62.64,1.72,2.07.48,6.9-1.06,4.17-1.6,5.09-3.28,5.59a9.63,9.63,0,0,0-1.18.47,6.58,6.58,0,0,1-1.46.46c-1,.17-2.61.55-3.37.78a8,8,0,0,1-3.37.1c-.7-.38-2.62-4.63-2.89-6.4-.09-.59-.2-.64-.39-.18-.37.89-.47,1.58-.53,4-.1,3.28.73,3-7.86,3-5.3,0-6.36,0-6.36.15s.26.14,1.22.15c.68,0,1.7,0,2.28.07l1,.07-1,.08a7.55,7.55,0,0,0-2.64.46,2,2,0,0,1-.64.2c-.18,0-.22.06-.22.35,0,.49.35.47,1.43,0a10.71,10.71,0,0,1,7.32-.06,8.93,8.93,0,0,0,1.35.5,19.13,19.13,0,0,1,3.57,1.68c.49.44.54,1,.51,5.25l0,4-.29.52c-.33.59-.46.7-1.31,1a12.91,12.91,0,0,0-1.2.56,9.55,9.55,0,0,1-1.55.59,6.11,6.11,0,0,0-1.31.5c-1.21.79-5,.82-6.5.05-1.17-.6-2-.74-2-.35,0,.21.05.25.31.25a.88.88,0,0,1,.59.28c.42.43,1.69.66,4.65.85l.5,0H5.47a8.24,8.24,0,0,0-2.64.94A3.14,3.14,0,0,1,2,89.5a8,8,0,0,0-1.12.25,2.4,2.4,0,0,1-.64.14c-.21,0-.24,0-.24.4,0,.52.37.55,1.23.1a7.7,7.7,0,0,1,2.05-.6A13.91,13.91,0,0,0,5.2,89.3c1.73-.76,8-.86,8.76-.14l.26.24-.07,2.37a18.83,18.83,0,0,1-.21,2.87c-.07.28-.2,1-.29,1.55s-.27,1.52-.41,2.08c-.34,1.44-.33,1.72.06,1.72s.3,0,.3-.28a3.94,3.94,0,0,1,.3-1.42,3.86,3.86,0,0,1,.4,1.43c0,.25,0,.27.4.27s.48,0,.19-1.66A4,4,0,0,1,15,96c.08-.25.23-.82.34-1.27a30.4,30.4,0,0,1,2-5.1c.55-1,.44-.94,5.63-.91l4.45,0,.38.31c.65.52,2,3.64,2.58,5.86a4.77,4.77,0,0,0,.35,1,3.58,3.58,0,0,1,0,2.16c-.1.52-.19,1.16-.22,1.42l0,.48h.41c.4,0,.41,0,.41-.38a4.91,4.91,0,0,1,.18-.92l.18-.55.17.67a6.09,6.09,0,0,1,.17.93c0,.21,0,.25.3.25s.39-.2,0-1.64c-.81-3.38-1.24-8.66-.75-9.16.72-.71,6.82-.65,8.71.09a16,16,0,0,0,2,.51,8,8,0,0,1,2,.58,8.81,8.81,0,0,0,1.33.51,12.85,12.85,0,0,1,3.22,1.61c.49.53.28,3.49-.4,5.55a7.81,7.81,0,0,0-.31,1.36l-.06.59h.41c.36,0,.42,0,.42-.21s.42-2.44.61-3.19c.55-2.19.53-3.61-.07-4.33a5.86,5.86,0,0,0-1.32-1.09A4.06,4.06,0,0,0,47,90.71a4.63,4.63,0,0,1-1.13-.45,6.17,6.17,0,0,0-2.26-.76A6.28,6.28,0,0,1,42,88.94a6.08,6.08,0,0,0-1.6-.54c-.6-.08-.6-.08-.14-.1,2.09,0,4-.41,4.44-.81.24-.24.49-.33,1.27-.49a3.24,3.24,0,0,0,1.8-.78,2.39,2.39,0,0,1,.7-.33c1.33-.36,1.78-1.84,1.28-4.25l-.55-2.7a16.08,16.08,0,0,0-.6-2.3c-.13-.27-.35-.87-.5-1.32a4.2,4.2,0,0,0-.61-1.24,2,2,0,0,1-.34-.49c0-.19-.47-.5-1-.65a4.48,4.48,0,0,1-1-.49c-1.58-1.14-9-1-9.68.18a2,2,0,0,1-.68.31A2.45,2.45,0,0,0,33,74.8a2.8,2.8,0,0,1-.42.94,3.63,3.63,0,0,0-.6,2,6.23,6.23,0,0,1-.55,2.15,11.54,11.54,0,0,0-.38,5.07,2.53,2.53,0,0,0,1.4,1,2,2,0,0,1,.79.43c.34.32.68.45,2.1.75.46.1.5.13.46.36-.1.52-.43.64-1.8.64a5.65,5.65,0,0,0-2.56.43c-.53.19-.66.68-.67,2.62a9.37,9.37,0,0,1-.13,2l-.12.34-.23-.93c-.29-1.19-.37-1.39-.66-1.7a1.84,1.84,0,0,1-.35-.7,2.2,2.2,0,0,0-1-1.56c-1-.47-1.2-.49-5.53-.49-5.49,0-5.82.1-6.39,1.82a3.61,3.61,0,0,1-.42.94,2.49,2.49,0,0,0-.59,1.33,7.75,7.75,0,0,1-.27.93l-.11.28-.09-.3a17.75,17.75,0,0,1-.16-2.22c-.09-2.6-.2-2.69-3.17-2.83-1.75-.08-1.53,0-1.71-.46s-.25-.4.84-.64,1.24-.3,1.67-.7a2.2,2.2,0,0,1,.78-.39c1.54-.37,1.52-.27,1.52-6.07s.06-5.43-1.45-5.89a2,2,0,0,1-.62-.41,3.14,3.14,0,0,0-1.75-.64,1.42,1.42,0,0,1-.8-.34c-.49-.49-2.18-.85-4-.86-.16,0-.27,0-.24-.06s1.85-.09,4-.13c5.18-.09,4.83.09,4.83-2.49,0-1.94.24-3.33.43-2.49A5,5,0,0,0,16.06,69a1.89,1.89,0,0,1,.28.63c.5,1.67,1.2,2,4.36,1.78,1.59-.09,2.23-.24,2.74-.62.26-.21.52-.28,1.37-.37a4.29,4.29,0,0,0,2.4-.69,2.15,2.15,0,0,1,1-.46,2.77,2.77,0,0,0,2-2.15,6,6,0,0,1,.39-1,3,3,0,0,0,.55-1.46A12.77,12.77,0,0,1,31.79,62a7,7,0,0,0,.45-2c.35-2.21-.06-3.26-1.42-3.71a1.87,1.87,0,0,1-.73-.42,2.77,2.77,0,0,0-1.7-.68,2.28,2.28,0,0,1-1.22-.5c-.52-.39-.55-.39-2.56-.67-.87-.12-.84-.1-.76-.57s.31-.72,1.31-.8A4.23,4.23,0,0,0,27.5,52a3,3,0,0,1,1.2-.47,2.58,2.58,0,0,0,1.64-.74.81.81,0,0,1,.51-.31,2.13,2.13,0,0,0,1.4-1.22,11,11,0,0,0-.37-4.13,16.13,16.13,0,0,1-.44-1.75c-.42-2.14-.45-2.25-.68-2.53a4.91,4.91,0,0,1-.49-1.13,3.28,3.28,0,0,0-.63-1.25l-.55-.61a2.46,2.46,0,0,0-.91-.4,2.82,2.82,0,0,1-1.1-.5c-.41-.34-.78-.44-2.38-.64a3,3,0,0,1-1.32-.36,5.12,5.12,0,0,0-2.73-.62c-3.07-.18-3.72.1-4.3,1.84a2.81,2.81,0,0,1-.35.7,2.58,2.58,0,0,0-.54,1.1c-.48,2.14-.64,1.9-.74-1.07-.1-2.74.13-2.58-3.66-2.69A19,19,0,0,1,8.26,35c-.07-.07,0-.1.14-.1a6.3,6.3,0,0,0,2.1-.68,4.57,4.57,0,0,1,1.05-.43A5.24,5.24,0,0,0,13.24,33a3,3,0,0,1,.57-.37c.87-.47.83-.26.87-5.37,0-5.92,0-6-1.59-6.47a1.88,1.88,0,0,1-.69-.3c0-.21-.7-.53-1.71-.78l-1.11-.27.39-.21A3.59,3.59,0,0,1,11.7,19c1.51-.08,1.91-.17,2.35-.53s.59-.53.66-2.57c.08-2.49.24-3.1.49-1.89a5.14,5.14,0,0,0,.7,1.89,3.36,3.36,0,0,1,.44.93,2.2,2.2,0,0,0,1,1.48c1,.68.7.65,5.57.62l4.42,0,.67-.49a2.28,2.28,0,0,0,1.19-1.56A3.28,3.28,0,0,1,29.6,16a4,4,0,0,0,.7-1.74c.31-1.29.41-1,.49,1.44.1,2.9.35,3.15,3.16,3.3,1.71.09,2.4.42,1.37.64a4.76,4.76,0,0,0-2,.76,2.67,2.67,0,0,1-.85.45c-1.35.38-1.71,1.41-1.44,4.11a7.4,7.4,0,0,0,.64,2.46A10.69,10.69,0,0,1,32,28.82,4.32,4.32,0,0,0,32.59,31a4,4,0,0,1,.41.9,2.43,2.43,0,0,0,1.46,1.86,2.77,2.77,0,0,1,.68.43,4.37,4.37,0,0,0,2.09.74,6,6,0,0,1,1.24.35,16.47,16.47,0,0,0,6.24.82l.8-.1c.39,0,1.22-1.07,1.49-1.91a4.79,4.79,0,0,1,.45-1,3.47,3.47,0,0,0,.4-.93c.29-1,1.23-3.72,1.43-4.09s.21-.27.43,1.1.39,1.81.69,2a2.43,2.43,0,0,1,.39,1.11c.2,1,.24,1.08.66,1.56a3.2,3.2,0,0,1,.44.91,2.47,2.47,0,0,0,.44.87c.78.73,4.93.59,7.26-.25a16.39,16.39,0,0,1,1.81-.53,5,5,0,0,0,2-.77,2.44,2.44,0,0,1,.66-.39,1.14,1.14,0,0,0,.77-.77,2.48,2.48,0,0,1,.38-.65A5.2,5.2,0,0,0,66,30.25a13.62,13.62,0,0,1,.51-1.8c.76-2.12,1-6.05.37-7.07a2.44,2.44,0,0,0-1.32-.73,2.6,2.6,0,0,1-.57-.36,4.28,4.28,0,0,0-2-.7c-1.29-.25.16-.69,2.28-.69,1.58,0,2.15-.8,2.15-3,0-1.43.11-1.88.47-2s.38-.09.53.73a3.76,3.76,0,0,0,.75,1.88,3,3,0,0,1,.4.8c.43,1.39,2.11,1.84,4.55,1.24.36-.09,1.5-.33,2.54-.55A17.06,17.06,0,0,0,79,17.41,7.52,7.52,0,0,1,80,17a3.48,3.48,0,0,0,1.5-.71,3.18,3.18,0,0,1,.52-.38c.26-.16.36-.31.49-.77a4,4,0,0,1,.45-1,4.13,4.13,0,0,0,.74-2.36c.11-.93.19-1.25.34-1.41.5-.53.7-1.65.74-4.06S84.67,3.42,83.33,3a1.87,1.87,0,0,1-.85-.44,3.15,3.15,0,0,0-1.69-.66c-1.49-.29-.88-.53,1.54-.6l1.88-.05L84.45,1c.42-.49.34-1-.16-1s-.4,0-.4.3V.6h-2.3V0h-8.9V.29c0,.32,0,.32,2.4.51a7.19,7.19,0,0,1,3,.7,9.74,9.74,0,0,0,1.72.71,12.83,12.83,0,0,1,4.27,2.05c.49.65.44,3-.11,4.54a15.4,15.4,0,0,0-.6,2.66,6.49,6.49,0,0,1-.44,1.41,11.2,11.2,0,0,0-.52,1.24C82,15.22,81.9,15.34,80.64,16a11.19,11.19,0,0,1-3,1.05c-.34.06-1.06.24-1.59.4a12.33,12.33,0,0,1-5,.49c-.57-.14-.79-.39-1.11-1.24a6.89,6.89,0,0,0-.55-1.15,7.54,7.54,0,0,1-.55-1.4,8.44,8.44,0,0,0-.61-1.57,5.46,5.46,0,0,1-.6-2A10.82,10.82,0,0,0,67.05,8c-.42-1.15-.48-6.5-.08-7.17s.3-.87-.11-.87h-.33l-.12.77c-.06.43-.12,1.59-.13,2.58,0,2.08-.1,3.19-.22,2.7A7.46,7.46,0,0,0,65.34,4a6.4,6.4,0,0,1-.5-1.25A3.75,3.75,0,0,0,64,1a1,1,0,0,1-.29-.67V0h-.5c-.59,0-.71.35-.25.71a12.89,12.89,0,0,1,1.74,3.42,9.84,9.84,0,0,0,.51,1.37,6.74,6.74,0,0,1,.51,1.72c.29,1.51.38,1.88.49,1.88.34,0,.56,1.92.67,5.87l.06,2.42-.4.4-.4.41H62.78c-4,0-4.16,0-3,.42a2.18,2.18,0,0,1,1.1.57,3.79,3.79,0,0,0,1.89.85,9.55,9.55,0,0,1,3.71,2c.42.78.27,3-.33,4.93a14.31,14.31,0,0,0-.4,1.6,7.41,7.41,0,0,1-.65,2.29c-.18.38-.4.92-.5,1.19a2.33,2.33,0,0,1-1.33,1.41c-.26.1-.83.34-1.27.55a7,7,0,0,1-1.7.55c-.85.16-1.48.31-3.09.76-2.31.63-4.27.42-4.72-.51a21.5,21.5,0,0,1-1.38-3.15c-.1-.33-.32-1-.51-1.45a15.09,15.09,0,0,1-.54-1.77c-.11-.5-.3-1.17-.41-1.48l-.22-.57-.25.23A4,4,0,0,0,48.09,29a16.65,16.65,0,0,1-.54,1.85c-.15.35-.4,1-.56,1.5a10.43,10.43,0,0,1-1.59,3c-.6.51-3.16.38-5-.24-.3-.1-1.14-.3-1.87-.44A8.23,8.23,0,0,1,36.45,34c-.44-.21-.92-.41-1.05-.45-1.57-.46-2.62-3-3.55-8.42-.39-2.3-.2-3.25.75-3.74a22.25,22.25,0,0,1,3-1.33,4.67,4.67,0,0,0,1.94-.88,2.8,2.8,0,0,1,1.08-.57l.82-.29L39,18.26c-.25,0-1.77-.06-3.37-.06-4.34,0-4.22.08-4.29-3.1-.06-2.26-.15-2.88-.6-3.8l-.22-.45-.07.43a25.45,25.45,0,0,1-2.39,6.15c-.54.69-.66.71-4.64.75-5.24.06-5.6,0-6.28-1.28a38.25,38.25,0,0,1-1.87-4.8L15,10.75a4.39,4.39,0,0,1,0-2.59c.51-2.9,2.1-6.83,3-7.42.52-.33.36-.74-.29-.74s-.55,0-.55.24a.87.87,0,0,1-.25.51,2.7,2.7,0,0,0-.41.78A6,6,0,0,1,16,2.6a8.43,8.43,0,0,0-.65,1.65,7.4,7.4,0,0,1-.45,1.25,2.71,2.71,0,0,0-.46,1.25c-.26,1.43-.52,2-.62,1.47,0-.15-.12-.72-.21-1.26a3.38,3.38,0,0,0-.66-1.81,3.59,3.59,0,0,1-.35-1,4.37,4.37,0,0,0-.76-1.91,2,2,0,0,1-.35-.69,2.82,2.82,0,0,0-.29-.71A1,1,0,0,1,11,.32V0h-.65C9.71,0,9.7,0,9.7.27m17.7,0c0,.2.13.41.45.71A19.13,19.13,0,0,1,30.5,7.49c0,.23,0,.2.25-.21.44-.84.56-1.59.62-3.73s.09-2.3.57-2.74S32.3,0,31.67,0h-.53L31,.62c-.07.35-.16,1.44-.21,2.43-.11,2.41-.19,2.58-.54,1.18a5.06,5.06,0,0,0-.55-1.48,7.32,7.32,0,0,1-.55-1.12,3,3,0,0,0-.47-.88A.76.76,0,0,1,28.5.28C28.5,0,28.48,0,28,0s-.55,0-.55.27m21.3,0a1.08,1.08,0,0,0,.18.52c.38.55.41.88.42,3.86,0,1.6,0,3.11.08,3.35l.07.44.27-.86a2.56,2.56,0,0,1,.56-1.09,4.11,4.11,0,0,0,.86-1.83A25.7,25.7,0,0,1,52.47,1.5a2.35,2.35,0,0,1,.59-.65c.69-.5.62-.85-.17-.85-.59,0-.6,0-.6.29a.54.54,0,0,1-.09.36,2,2,0,0,0-.29.68,3,3,0,0,1-.49.95,2.18,2.18,0,0,0-.47,1l-.29,1.12-.12.45-.19-.3c-.17-.24-.21-.53-.26-1.74A6.53,6.53,0,0,0,49.86,1a2.13,2.13,0,0,1-.17-.67c0-.28,0-.29-.49-.29s-.5,0-.5.26M87.79.33c0,.91.46,1,5.86,1,4.73,0,4.85-.05,5.14-.57S99,0,98.09,0h-.8V.6h-8V0h-1.5V.33m-46,71.77a5.6,5.6,0,0,1,2.47.62,6.27,6.27,0,0,0,1.11.47c1.26.41,2.19,1.94,2.73,4.48.13.64.35,1.52.48,1.94a11.29,11.29,0,0,1,.42,5c-.19.57-.43.77-1.31,1.09a6.21,6.21,0,0,0-1,.5,6.2,6.2,0,0,1-1.39.54,8.16,8.16,0,0,0-1.41.5c-1.47.74-5.06.91-6.24.29a8.74,8.74,0,0,0-2.05-.83,4.8,4.8,0,0,1-1.22-.47,7.84,7.84,0,0,0-1-.5c-1.74-.71-1.91-1.23-1.39-4.26,1-5.69,1.87-7.65,3.7-8.28a7.32,7.32,0,0,0,1.07-.44,9.42,9.42,0,0,1,5.09-.6M7.37,88.36a3.14,3.14,0,0,1-.75,0c-.2,0,0,0,.38,0s.58,0,.37,0m31.4,0a2,2,0,0,1-.6,0c-.18,0-.05,0,.28,0s.47,0,.32,0M74,89.15a14.3,14.3,0,0,1-1.5.35,4.19,4.19,0,0,0-2,.73,3.41,3.41,0,0,1-.79.45,2.46,2.46,0,0,0-1.29,2,.88.88,0,0,1-.26.37c-.4.36-.52.77-.69,2.15A3.17,3.17,0,0,1,67,97a4.27,4.27,0,0,0-.56,2.2l-.07.83h.31c.27,0,.31,0,.31-.26a12.25,12.25,0,0,1,.3-1.42c.16-.64.39-1.7.5-2.35a7.23,7.23,0,0,1,.49-1.75,10.52,10.52,0,0,0,.5-1.23,2.88,2.88,0,0,1,2.06-2.19,5.64,5.64,0,0,0,.9-.4c1.49-.92,5.82-.92,7.84,0,.47.21,1,.44,1.21.51.94.35,1.24.7,1.65,1.9a7,7,0,0,0,.44,1A5.84,5.84,0,0,1,83.49,96a16.28,16.28,0,0,0,.45,2,7.1,7.1,0,0,1,.32,1.42c.06.59.08.63.31.63h.25l-.06-1a4.55,4.55,0,0,0-.64-2.51c-.21-.22-.26-.44-.38-1.5-.17-1.4-.24-1.64-.64-2.09a3.4,3.4,0,0,1-.5-1c-.22-.75-.49-1-1-1.17a.88.88,0,0,1-.41-.21,4.49,4.49,0,0,0-2-.86,14,14,0,0,1-1.58-.36,6.32,6.32,0,0,0-3.6-.06"/><path id="path2" class="cls-3" d="M0,.6v.6H.32a5.29,5.29,0,0,0,.93-.15c1.58-.38,7.91-.16,8.5.3,1.63,1.25,3.75,9.75,3.75,15v.93l-.34.21c-.32.2-.47.21-3.39.21a18.75,18.75,0,0,0-5.41.42l-.78.21.48.27a36.75,36.75,0,0,0,4.77,1.71,9,9,0,0,1,1.4.5,13.39,13.39,0,0,0,1.3.55,2.76,2.76,0,0,1,1.63,1.05l.29.42,0,3.86c0,4.9,0,5-1.11,5.4a6.19,6.19,0,0,0-1.16.55,4.91,4.91,0,0,1-1.44.56,9.49,9.49,0,0,0-1.57.56,5.55,5.55,0,0,1-1.95.53,12.54,12.54,0,0,0-3,.71,5.8,5.8,0,0,0,2.05.71A20.22,20.22,0,0,0,9.4,36c3.81,0,3.61,0,3.85.51s.2.68.26,3.63c.08,4,.12,4.21.9,4.9.3.26.57.45.6.41a10.5,10.5,0,0,0,.49-1.86,10.43,10.43,0,0,1,.63-2.4c.11-.22.37-.93.58-1.57A9.71,9.71,0,0,1,18,37c.38-.61,1-.72,2.33-.44.41.08,1.29.23,1.95.31a8.78,8.78,0,0,1,2.94.65,9.33,9.33,0,0,0,2,.65,3.78,3.78,0,0,1,1.57,1.37c.07.19.3.76.51,1.29a10.44,10.44,0,0,1,.79,2.79c.11.57.27,1.25.35,1.5a12.42,12.42,0,0,1,.43,3.71c-.13.71-.12.7-1.08,1.05a4.08,4.08,0,0,0-1.08.54,4.43,4.43,0,0,1-1.49.56,6.93,6.93,0,0,0-1.5.51,4.31,4.31,0,0,1-2.07.58c-3,.43-3.32.55-3.37,1.3l0,.56.54.2a13.12,13.12,0,0,0,1.75.4l1.84.3a4.42,4.42,0,0,1,1.16.4,8.77,8.77,0,0,0,1.66.58,3.51,3.51,0,0,1,1.42.53,6.64,6.64,0,0,0,1.93.83,3,3,0,0,1,.39,1.56,25.61,25.61,0,0,1-.55,3.19c-.1.36-.26,1.06-.35,1.55a10.08,10.08,0,0,1-.73,2.48,5,5,0,0,0-.32.88c-.28,1.08-.93,1.63-2.35,2a5.05,5.05,0,0,0-1.18.47c-.4.26-.46.27-3.37.73a13.4,13.4,0,0,0-1.89.41c-.77.27-1.73.23-1.95-.07a17.18,17.18,0,0,1-1.6-3.27c-.18-.56-.45-1.29-.59-1.62a12.86,12.86,0,0,1-.51-1.9A10.49,10.49,0,0,0,15,61.37s-.3.14-.6.4c-.81.72-.84.89-.88,4.87s0,3.89-.42,4c-.2.08-2.07.12-6.7.13-5.8,0-6.41,0-6.41.18s3.75.29,9.35.2c5.19-.09,4.85.1,4.85-2.66a11.81,11.81,0,0,1,.43-3.93c.27-.78.38-.79.54,0,.43,2.1,2.17,5.9,2.86,6.27a8,8,0,0,0,3.37-.1c.76-.23,2.39-.61,3.37-.78a6.58,6.58,0,0,0,1.46-.46A9.63,9.63,0,0,1,27.41,69c1.68-.5,2.22-1.42,3.28-5.59,1.24-4.83,1.14-6.26-.48-6.9a6.16,6.16,0,0,1-1-.51,5.28,5.28,0,0,0-1.77-.64,4.55,4.55,0,0,1-1-.39,6.09,6.09,0,0,0-1.69-.55c-2.47-.45-2.52-.47-2.38-1.22.1-.55,0-.51,2-.88a7.26,7.26,0,0,0,2.05-.6,8,8,0,0,1,1.41-.51,3.5,3.5,0,0,0,1.46-.61,4.32,4.32,0,0,1,.79-.39c1.6-.65,1.73-1.25,1-5-.8-4.42-2-6.9-3.51-7.4-.37-.13-1-.38-1.46-.57a9.21,9.21,0,0,0-2.07-.58c-.71-.13-1.74-.35-2.29-.49-3.89-1-4.39-.63-6.22,4.74-.22.63-.45,1.35-.51,1.59l-.1.45-.19-.37c-.37-.7-.51-1.66-.59-3.87-.12-3.22.1-3.05-3.8-3.14-4.28-.1-6-.45-4-.81a7.61,7.61,0,0,0,2.49-.66,10.75,10.75,0,0,1,1.3-.49,12.09,12.09,0,0,0,3.47-1.75c.49-.56.54-1,.5-5.3l0-3.83-.4-.59a2.63,2.63,0,0,0-.75-.75,28.1,28.1,0,0,0-3.6-1.49,3.06,3.06,0,0,1-1.31-.61,5.1,5.1,0,0,0-1.88-.89c-.09,0,0-.05.14-.09s1.66-.08,3.32-.09c4.7,0,4.58.07,4.48-3.26a20.49,20.49,0,0,0-.2-2.8c-.08-.28-.21-1-.3-1.6-.57-3.75-2.51-9-3.6-9.76C9.79.61,9.7.48,9.7.27V0H0V.6M18.2.29a.49.49,0,0,1-.26.45c-.89.59-2.48,4.52-3,7.42a4.39,4.39,0,0,0,0,2.59l.35,1.35a38.25,38.25,0,0,0,1.87,4.8c.68,1.26,1,1.34,6.28,1.28,4,0,4.1-.06,4.64-.75a25.45,25.45,0,0,0,2.39-6.15l.07-.43.22.45c.45.92.54,1.54.6,3.8.07,3.18-.05,3.1,4.29,3.1,1.6,0,3.12,0,3.37.06l.46.06-.82.29a2.8,2.8,0,0,0-1.08.57,4.67,4.67,0,0,1-1.94.88,22.25,22.25,0,0,0-3,1.33c-1,.49-1.14,1.44-.75,3.74.93,5.45,2,8,3.55,8.42.13,0,.61.24,1.05.45a8.23,8.23,0,0,0,2.12.65c.73.14,1.57.34,1.87.44,1.8.62,4.36.75,5,.24a10.43,10.43,0,0,0,1.59-3c.16-.48.41-1.15.56-1.5A16.65,16.65,0,0,0,48.09,29a4,4,0,0,1,1.13-2.35l.25-.23.22.57c.11.31.3,1,.41,1.48a15.09,15.09,0,0,0,.54,1.77c.19.46.41,1.12.51,1.45a21.5,21.5,0,0,0,1.38,3.15c.45.93,2.41,1.14,4.72.51,1.61-.45,2.24-.6,3.09-.76A7,7,0,0,0,62,34c.44-.21,1-.45,1.27-.55A2.33,2.33,0,0,0,64.64,32c.1-.27.32-.81.5-1.19a7.41,7.41,0,0,0,.65-2.29,14.31,14.31,0,0,1,.4-1.6c.6-1.9.75-4.15.33-4.93a9.55,9.55,0,0,0-3.71-2,3.79,3.79,0,0,1-1.89-.85,2.18,2.18,0,0,0-1.1-.57c-1.2-.38-1-.41,3-.42h3.34l.4-.41.4-.4L66.86,15c-.11-4-.33-5.87-.67-5.87-.11,0-.2-.37-.49-1.88a6.74,6.74,0,0,0-.51-1.72,9.84,9.84,0,0,1-.51-1.37A12.89,12.89,0,0,0,62.94.71a.6.6,0,0,1-.25-.45V0h-9.2V.27c0,.21-.12.36-.43.58a2.35,2.35,0,0,0-.59.65,25.7,25.7,0,0,0-1.33,3.15,4.11,4.11,0,0,1-.86,1.83,2.56,2.56,0,0,0-.56,1.09l-.27.86L49.38,8c0-.24-.07-1.75-.08-3.35,0-3,0-3.31-.42-3.86A1.08,1.08,0,0,1,48.7.26V0H32.2V.28a.77.77,0,0,1-.26.53c-.48.44-.52.63-.57,2.74s-.18,2.89-.62,3.73c-.21.41-.24.44-.25.21A19.13,19.13,0,0,0,27.85,1c-.32-.3-.45-.51-.45-.71V0H18.2V.29m49,0A1.64,1.64,0,0,1,67,.87c-.4.67-.34,6,.08,7.17a10.82,10.82,0,0,1,.58,2.44,5.46,5.46,0,0,0,.6,2,8.44,8.44,0,0,1,.61,1.57,7.54,7.54,0,0,0,.55,1.4,6.89,6.89,0,0,1,.55,1.15c.32.85.54,1.1,1.11,1.24a12.33,12.33,0,0,0,5-.49c.53-.16,1.25-.34,1.59-.4a11.19,11.19,0,0,0,3-1.05c1.26-.61,1.38-.73,1.75-1.84a11.2,11.2,0,0,1,.52-1.24,6.49,6.49,0,0,0,.44-1.41A15.4,15.4,0,0,1,84,8.8c.55-1.58.6-3.89.11-4.54a12.83,12.83,0,0,0-4.27-2,9.74,9.74,0,0,1-1.72-.71,7.19,7.19,0,0,0-3-.7c-2.44-.19-2.4-.19-2.4-.51V0h-5.5V.24M81.59.3V.6h2.3V0h-2.3V.3m7.7,0V.6h8V0h-8V.3M26.49,1a1.54,1.54,0,0,1,1.4,1.08c.15.3.35.7.45.88s.54,1.3,1.26,3.38a9.87,9.87,0,0,1-.2,6.45,12,12,0,0,0-.5,1.35,11.81,11.81,0,0,1-.7,1.69,10,10,0,0,0-.5,1.08c-.23.71-.28.72-4.95.72-4.45,0-4.59,0-4.8-.55-.06-.14-.28-.59-.49-1a18.4,18.4,0,0,1-.76-1.85c-.21-.61-.49-1.37-.63-1.7a9.8,9.8,0,0,1,.17-7c.19-.45.44-1.12.55-1.48a14.41,14.41,0,0,1,1.36-2.78c.36-.38,6.58-.6,8.34-.29m22.07.26c.21.31.22.42.26,3.84,0,3.59.11,4.18.51,5.35l.14.38.3-.6a36.64,36.64,0,0,0,1.62-4.5A11.54,11.54,0,0,1,52,4.19c.15-.3.4-.9.56-1.33C53.19,1,53.25,1,57.85.92c4.84-.05,5,0,5.43,1.38a5.26,5.26,0,0,0,.45.88,5.29,5.29,0,0,1,.56,1.4,8.78,8.78,0,0,0,.55,1.57,8,8,0,0,1,.64,2.5c.17,1,.38,2,.46,2.25.43,1.2.74,6,.42,6.54l-.16.24-3.78.05c-3.86,0-4.6.11-5.57.51l-.31.13.63.32a38.73,38.73,0,0,0,4.67,1.65,6.52,6.52,0,0,1,1.27.45,8.82,8.82,0,0,0,1.19.52,4.41,4.41,0,0,1,1.78,1.12c.3.27.26,1.7-.09,2.77-.11.35-.34,1.43-.51,2.4a8.09,8.09,0,0,1-.64,2.45,6.71,6.71,0,0,0-.45,1.18,2.47,2.47,0,0,1-2.11,2.08,6,6,0,0,0-1.14.43,6.33,6.33,0,0,1-2.5.65c-.71.11-1.7.32-2.2.46a10.11,10.11,0,0,1-1.77.31l-.88.07-.53-.58a2.88,2.88,0,0,1-.71-1.14A10.94,10.94,0,0,0,52,32.25a8.76,8.76,0,0,1-.54-1.45c-.11-.42-.37-1.27-.58-1.9a22.36,22.36,0,0,1-.61-2.2,5.54,5.54,0,0,0-.89-2.3,2.94,2.94,0,0,0-.59.44c-.57.52-.67.8-1.08,3.12A8.24,8.24,0,0,1,47.18,30a13.56,13.56,0,0,0-.59,1.65,7.9,7.9,0,0,1-.53,1.4c-.12.19-.39.71-.61,1.15-.4.79-.41.81-.85.89a6.14,6.14,0,0,1-2.25-.19,20.41,20.41,0,0,0-3-.64,6.17,6.17,0,0,1-1.9-.5,12.74,12.74,0,0,0-1.4-.56c-1.08-.36-1.07-.35-1.49-1a27.55,27.55,0,0,1-2.26-9c0-.81.54-1.41,1.62-1.82.32-.11.9-.36,1.3-.55a13,13,0,0,1,1.71-.61c2.31-.62,5.16-1.78,4.84-2-.69-.38-1.9-.51-5.53-.57-3.13-.05-3.64-.08-3.86-.23l-.25-.17-.06-4c0-2.22,0-5.76,0-7.88l.06-3.85.32-.33L32.78.9l7.78,0,7.78,0,.22.33m24.93.06a23.94,23.94,0,0,1,2.6.45c4.11,1.13,6,1.81,7.15,2.62l.75.51v.71a6.28,6.28,0,0,1-.29,1.74,16.37,16.37,0,0,0-.45,2.15,7,7,0,0,1-.67,2.73,5.31,5.31,0,0,0-.42,1.12,2.61,2.61,0,0,1-2,2.18,5,5,0,0,0-1.08.39,10.12,10.12,0,0,1-2.78.76c-.38.06-1.13.22-1.65.35-3.1.79-3.86.61-4.46-1.06a8.67,8.67,0,0,0-.55-1.2,6.25,6.25,0,0,1-.53-1.46,12.14,12.14,0,0,0-.6-1.74A6.75,6.75,0,0,1,68,9.2a29.52,29.52,0,0,0-.65-3.71,13.47,13.47,0,0,1-.17-2.3l0-1.74.45-.23c.59-.3,3.11-.25,5.9.12M3.7,72.09a5.48,5.48,0,0,0-2.39.66,3.14,3.14,0,0,1-1,.34c-.25,0-.31,0-.31.22,0,.36,1,.2,2.05-.31a7.93,7.93,0,0,1,6.07-.06,9,9,0,0,0,1.67.59,3.34,3.34,0,0,1,1.3.49,4.31,4.31,0,0,0,1.54.67c.75,0,.87.72.87,5.23v3.9l-.33.59-.32.58-.82.26a6.25,6.25,0,0,0-1.28.56,5.39,5.39,0,0,1-1.58.58A9.83,9.83,0,0,0,7.41,87l-.65.34H3.55L2.91,87C1.72,86.39,0,86.08,0,86.49c0,.14.07.2.23.2a5.86,5.86,0,0,1,1.76.6c1.51.77,5.29.74,6.5-.05a6.11,6.11,0,0,1,1.31-.5,9.55,9.55,0,0,0,1.55-.59,12.91,12.91,0,0,1,1.2-.56c.85-.33,1-.44,1.31-1l.29-.52,0-4c0-4.3,0-4.81-.51-5.25a19.13,19.13,0,0,0-3.57-1.68,8.93,8.93,0,0,1-1.35-.5,11,11,0,0,0-5-.55m35.16,0a6,6,0,0,0-2.2.6,7.32,7.32,0,0,1-1.07.44c-1.83.63-2.71,2.59-3.7,8.28-.52,3-.35,3.55,1.39,4.26a7.84,7.84,0,0,1,1,.5,4.8,4.8,0,0,0,1.22.47,8.74,8.74,0,0,1,2.05.83c1.18.62,4.77.45,6.24-.29a8.16,8.16,0,0,1,1.41-.5,6.2,6.2,0,0,0,1.39-.54,6.21,6.21,0,0,1,1-.5c.88-.32,1.12-.52,1.31-1.09a11.29,11.29,0,0,0-.42-5c-.13-.42-.35-1.3-.48-1.94-.54-2.54-1.47-4.07-2.73-4.48a6.27,6.27,0,0,1-1.11-.47,10.18,10.18,0,0,0-5.36-.62m3.37.44a3.68,3.68,0,0,1,1.13.39,4.89,4.89,0,0,0,1.12.45c1.39.39,1.88.83,2.18,2a7.52,7.52,0,0,0,.44,1.13,7.27,7.27,0,0,1,.66,2.44c.08.5.25,1.33.38,1.85.81,3.13.59,4-1.08,4.54a5.67,5.67,0,0,0-1.07.5,5.71,5.71,0,0,1-1.5.55,10.79,10.79,0,0,0-1.74.59l-.8.37h-3.1L38.1,87a10,10,0,0,0-1.7-.59,6,6,0,0,1-1.5-.54,9.22,9.22,0,0,0-1.33-.61c-1.51-.54-1.62-2-.51-6.39s1.43-5,3.6-5.55a3.21,3.21,0,0,0,.78-.36c.76-.52,3.15-.72,4.79-.4M8,88.8a9.5,9.5,0,0,0-2.75.5,13.91,13.91,0,0,1-1.92.49,7.7,7.7,0,0,0-2,.6,2.79,2.79,0,0,1-.91.3c-.28,0-.32,0-.32.26,0,.4.82.31,1.86-.21a7.75,7.75,0,0,1,2.49-.66c.93-.16,2-.37,2.35-.48,1.53-.47,5.82-.71,6.48-.37l.32.17v1a37.82,37.82,0,0,1-.91,7.74c-.4,1.61-.4,1.88.06,1.88s.35,0,.35-.34a9.93,9.93,0,0,1,.24-1.38c.14-.56.32-1.5.41-2.08s.22-1.27.29-1.55a18.83,18.83,0,0,0,.21-2.87l.07-2.37L14,89.16c-.51-.47-2.94-.62-6-.36M18,88.9a1.64,1.64,0,0,0-.72.73,30.29,30.29,0,0,0-2,5.09c-.11.45-.26,1-.34,1.27a4,4,0,0,0-.06,2.34c.12.65.21,1.29.21,1.42s.05.24.31.24h.31l-.06-.48a10.72,10.72,0,0,1,.4-5.26c.14-.34.41-1.07.6-1.63a14.05,14.05,0,0,1,.72-1.75c.21-.4.45-.92.54-1.15a.65.65,0,0,1,.57-.53,73.44,73.44,0,0,1,8.83.08,16.81,16.81,0,0,1,1.53,3.17c.1.33.31.9.47,1.27A10.92,10.92,0,0,1,30,99.16l-.09.83h.3c.29,0,.31,0,.35-.48,0-.26.12-.9.22-1.42a3.58,3.58,0,0,0,0-2.16,4.77,4.77,0,0,1-.35-1c-.56-2.22-1.93-5.34-2.58-5.86l-.38-.31-4.47,0c-4.39,0-4.47,0-4.89.19m14,0c-.62.32-.65.4-.64,1.69a34.15,34.15,0,0,0,.93,7.77,10.24,10.24,0,0,1,.26,1.35c0,.26,0,.29.35.29s.46-.24.09-1.6c-.82-3.11-1.24-8.78-.68-9.15s4.92-.11,6.67.39a20.13,20.13,0,0,0,2.27.45,6,6,0,0,1,2.15.57,11.57,11.57,0,0,0,1.78.64,4.47,4.47,0,0,1,1.3.49,4.46,4.46,0,0,0,1,.51c1.07.46,1,.42,1,1.73a7.5,7.5,0,0,1-.32,2.27c-.63,2.38-.77,3.7-.38,3.7.21,0,.24,0,.3-.59A7.81,7.81,0,0,1,48.44,98c.68-2.06.89-5,.4-5.55a12.85,12.85,0,0,0-3.22-1.61,8.81,8.81,0,0,1-1.33-.51,8,8,0,0,0-2-.58,16,16,0,0,1-2-.51c-1.33-.52-7.44-.81-8.25-.39m41.76.91a6.25,6.25,0,0,0-2.08.6,5.56,5.56,0,0,1-.89.39A2.88,2.88,0,0,0,68.78,93a10.52,10.52,0,0,1-.5,1.23A7.23,7.23,0,0,0,67.79,96c-.11.65-.34,1.71-.5,2.35-.4,1.55-.39,1.68,0,1.68s.3.32.71-2.6a7.15,7.15,0,0,1,.58-2.4,9.34,9.34,0,0,0,.53-1.54,2,2,0,0,1,.51-1.14,1.7,1.7,0,0,0,.33-.44c0-.21.5-.47,1.26-.67a5,5,0,0,0,1.19-.47c1.21-.81,5-.83,6.41,0a4.55,4.55,0,0,0,1.1.42,2.5,2.5,0,0,1,2.19,2.25,4.07,4.07,0,0,0,.42,1.09c.33.48.38.68.63,2.37.11.77.27,1.68.35,2a6,6,0,0,1,.15.89c0,.2,0,.24.32.24h.31l-.06-.63a7.1,7.1,0,0,0-.32-1.42,16.28,16.28,0,0,1-.45-2,5.84,5.84,0,0,0-.61-2.17,7,7,0,0,1-.44-1c-.41-1.2-.71-1.55-1.65-1.9-.19-.07-.73-.3-1.21-.51a12,12,0,0,0-5.77-.58"/><path id="path3" class="cls-4" d="M1.25,1.05a5.47,5.47,0,0,1-.88.14H0v.45c0,.56.35.63.83.17l.28-.27,3.62,0c4,0,4.7,0,4.75.33a4.38,4.38,0,0,0,.76,1.9,1.54,1.54,0,0,1,.45,1A4.43,4.43,0,0,0,11.4,7c.3.29.34.52.6,3.16a7.65,7.65,0,0,0,.56,2.58,6.39,6.39,0,0,1,.31,2.58l.06,2-4.34.06c-4.87.06-5.95.15-7.22.57a5.76,5.76,0,0,1-1.13.3c-.15,0-.24.06-.24.15s.1.15.28.15a.71.71,0,0,1,.48.21c.65.71,2,1.2,3.91,1.44,2.38.3,2.78.37,3,.56a4.6,4.6,0,0,0,2,.75,2.32,2.32,0,0,1,1.26.49,3.32,3.32,0,0,0,1.12.56c1,.29.89-.12.85,4.69l0,3.86-.31.31a1.51,1.51,0,0,1-.95.43,3,3,0,0,0-1.63.81c-.1.15-.33.21-1,.29a3.25,3.25,0,0,0-2,.67l-.46.36L5,34a16.43,16.43,0,0,0-3.78.49,4.72,4.72,0,0,1-.9.2c-.24,0-.27,0-.27.35s0,.35.3.35a1.13,1.13,0,0,1,.53.14A8.76,8.76,0,0,0,2.2,36c.63.16,1.31.35,1.5.41a22.64,22.64,0,0,0,5.7.48l3.45.07.06,3.65c.11,6.39.36,7.5,1.8,8.25L15,49l.25-.56A10.46,10.46,0,0,0,15.89,45c.15-2.1.18-2.25.52-2.53s.51-.84.7-2.14c.1-.76.15-.88.36-1a2.44,2.44,0,0,0,.74-1.54l.11-.57.47,0a7.72,7.72,0,0,1,2.36.21c.33.1,1.48.35,2.55.56a10.17,10.17,0,0,1,2.31.61,3.21,3.21,0,0,0,.8.34,2.24,2.24,0,0,1,.59.26,1.45,1.45,0,0,0,.43.19c.35.09.53.36.62.95.19,1.28.36,1.8.7,2.13l.33.32.16,2a12.42,12.42,0,0,0,.55,3.43c.06.12,0,.24-.1.4a1.48,1.48,0,0,0-.25.57c-.06.3-.11.35-.43.39-1.12.17-1.67.41-1.86.82-.07.17-.24.22-1.11.32-1.19.13-1.75.32-2.09.73l-.24.28-1.93.11c-2.48.13-3.42.29-4.46.77-.31.14-.32.16-.32.78V54l.45.22a12.49,12.49,0,0,0,4.66.76l1.26.06.31.33a3.76,3.76,0,0,0,2.34.71c.72.06.79.09.95.36a2.3,2.3,0,0,0,1.52.68c.5,0,.78.17.85.49a1.33,1.33,0,0,0,.31.52c.18.17.22.26.14.4a14.17,14.17,0,0,0-.55,3.58l-.15,2-.29.23c-.36.28-.56.88-.71,2.1l-.12.92L28,67.4a.84.84,0,0,0-.69.71c0,.21-.15.25-1.2.33a3,3,0,0,0-2.06.68c-.25.3-.31.32-1,.35-.42,0-1.48.07-2.36.12-2.23.13-2.38.1-2.48-.59a2.18,2.18,0,0,0-.71-1.52c-.27-.12-.31-.25-.42-1.29a3,3,0,0,0-.68-1.9,1,1,0,0,1-.36-.72,15.77,15.77,0,0,0-.77-5.2c-.27-.54-.28-.55-.68-.27a5,5,0,0,1-.51.29c-.74.3-1,2.31-1.1,7.6,0,2.07-.07,3.94-.1,4.18l-.05.42H6.39c-6.37,0-8.39.12-4.17.23,3,.09,10.56,0,10.9-.15s.37-.16.41-4,.07-4.15.88-4.87c.3-.26.56-.44.6-.4a10.49,10.49,0,0,1,.54,2.17,12.86,12.86,0,0,0,.51,1.9c.14.33.41,1.06.59,1.62a17.18,17.18,0,0,0,1.6,3.27c.22.3,1.18.34,1.95.07A13.4,13.4,0,0,1,22.09,70c2.91-.46,3-.47,3.37-.73a5.05,5.05,0,0,1,1.18-.47c1.42-.36,2.07-.91,2.35-2a5,5,0,0,1,.32-.88A10.08,10.08,0,0,0,30,63.44c.09-.49.25-1.19.35-1.55a25.61,25.61,0,0,0,.55-3.19,3,3,0,0,0-.39-1.56,6.64,6.64,0,0,1-1.93-.83,3.51,3.51,0,0,0-1.42-.53,8.77,8.77,0,0,1-1.66-.58,4.42,4.42,0,0,0-1.16-.4l-1.84-.3a13.12,13.12,0,0,1-1.75-.4l-.54-.2,0-.56c0-.75.36-.87,3.37-1.3a4.31,4.31,0,0,0,2.07-.58,6.93,6.93,0,0,1,1.5-.51,4.43,4.43,0,0,0,1.49-.56,4.08,4.08,0,0,1,1.08-.54c1-.35.95-.34,1.08-1.05a12.42,12.42,0,0,0-.43-3.71c-.08-.25-.24-.93-.35-1.5a10.44,10.44,0,0,0-.79-2.79c-.21-.53-.44-1.1-.51-1.29a3.78,3.78,0,0,0-1.57-1.37,9.33,9.33,0,0,1-2-.65,8.78,8.78,0,0,0-2.94-.65c-.66-.08-1.54-.23-1.95-.31C19,36.25,18.35,36.36,18,37a9.71,9.71,0,0,0-1.26,2.61c-.21.64-.47,1.35-.58,1.57a10.43,10.43,0,0,0-.63,2.4A10.5,10.5,0,0,1,15,45.41s-.3-.15-.6-.41c-.78-.69-.82-.92-.9-4.9-.06-3-.08-3.29-.26-3.63s0-.46-3.85-.51a20.22,20.22,0,0,1-4.15-.25,5.8,5.8,0,0,1-2-.71,12.54,12.54,0,0,1,3.05-.71,5.55,5.55,0,0,0,1.95-.53,9.49,9.49,0,0,1,1.57-.56,4.91,4.91,0,0,0,1.44-.56,6.19,6.19,0,0,1,1.16-.55c1.12-.37,1.15-.5,1.11-5.4l0-3.86-.29-.42a2.76,2.76,0,0,0-1.63-1.05,13.39,13.39,0,0,1-1.3-.55,9,9,0,0,0-1.4-.5A36.75,36.75,0,0,1,4.06,18.6l-.48-.27.78-.21a18.75,18.75,0,0,1,5.41-.42c2.92,0,3.07,0,3.39-.21l.34-.21v-.93c0-5.25-2.12-13.75-3.75-15-.58-.44-7-.67-8.5-.3m17.61,0a2.11,2.11,0,0,0-.71.26,14.41,14.41,0,0,0-1.36,2.78c-.11.36-.36,1-.55,1.48a9.8,9.8,0,0,0-.17,7c.14.33.42,1.09.63,1.7a18.4,18.4,0,0,0,.76,1.85c.21.41.43.86.49,1,.21.53.35.55,4.8.55,4.67,0,4.72,0,4.95-.72a10,10,0,0,1,.5-1.08,11.81,11.81,0,0,0,.7-1.69,12,12,0,0,1,.5-1.35,9.87,9.87,0,0,0,.2-6.45C28.88,4.28,28.5,3.29,28.34,3s-.3-.58-.45-.88A1.54,1.54,0,0,0,26.49,1a57,57,0,0,0-7.63,0m13.59.17-.32.33L32.07,5.4c0,2.12,0,5.66,0,7.88l.06,4,.25.17c.22.15.73.18,3.86.23,3.63.06,4.84.19,5.53.57.32.19-2.53,1.35-4.84,2a13,13,0,0,0-1.71.61c-.4.19-1,.44-1.3.55-1.08.41-1.62,1-1.62,1.82a27.55,27.55,0,0,0,2.26,9c.42.68.41.67,1.49,1a12.74,12.74,0,0,1,1.4.56,6.17,6.17,0,0,0,1.9.5,20.41,20.41,0,0,1,3,.64,6.14,6.14,0,0,0,2.25.19c.44-.08.45-.1.85-.89.22-.44.49-1,.61-1.15a7.9,7.9,0,0,0,.53-1.4A13.56,13.56,0,0,1,47.18,30,8.24,8.24,0,0,0,47.74,28c.41-2.32.51-2.6,1.08-3.12a2.94,2.94,0,0,1,.59-.44,5.54,5.54,0,0,1,.89,2.3,22.36,22.36,0,0,0,.61,2.2c.21.63.47,1.48.58,1.9A8.76,8.76,0,0,0,52,32.25a10.94,10.94,0,0,1,.52,1.26,2.88,2.88,0,0,0,.71,1.14l.53.58.88-.07a10.11,10.11,0,0,0,1.77-.31c.5-.14,1.49-.35,2.2-.46a6.33,6.33,0,0,0,2.5-.65,6,6,0,0,1,1.14-.43,2.47,2.47,0,0,0,2.11-2.08,6.71,6.71,0,0,1,.45-1.18,8.09,8.09,0,0,0,.64-2.45c.17-1,.4-2.05.51-2.4.35-1.07.39-2.5.09-2.77a4.41,4.41,0,0,0-1.78-1.12,8.82,8.82,0,0,1-1.19-.52,6.52,6.52,0,0,0-1.27-.45,38.73,38.73,0,0,1-4.67-1.65l-.63-.32.31-.13c1-.4,1.71-.47,5.57-.51l3.78-.05.16-.24c.32-.49,0-5.34-.42-6.54-.08-.25-.29-1.26-.46-2.25a8,8,0,0,0-.64-2.5,8.78,8.78,0,0,1-.55-1.57,5.29,5.29,0,0,0-.56-1.4,5.26,5.26,0,0,1-.45-.88C62.84.91,62.69.87,57.85.92c-4.6,0-4.66.06-5.34,1.94-.16.43-.41,1-.56,1.33a11.54,11.54,0,0,0-.56,1.56,36.64,36.64,0,0,1-1.62,4.5l-.3.6-.14-.38c-.4-1.17-.46-1.76-.51-5.35,0-3.42,0-3.53-.26-3.84L48.34,1l-7.78,0L32.78.9l-.33.32m35.14,0-.45.23,0,1.74a13.47,13.47,0,0,0,.17,2.3A29.52,29.52,0,0,1,68,9.2a6.75,6.75,0,0,0,.56,2.39,12.14,12.14,0,0,1,.6,1.74,6.25,6.25,0,0,0,.53,1.46,8.67,8.67,0,0,1,.55,1.2c.6,1.67,1.36,1.85,4.46,1.06.52-.13,1.27-.29,1.65-.35a10.12,10.12,0,0,0,2.78-.76,5,5,0,0,1,1.08-.39,2.61,2.61,0,0,0,2-2.18,5.31,5.31,0,0,1,.42-1.12,7,7,0,0,0,.67-2.73,16.37,16.37,0,0,1,.45-2.15A6.28,6.28,0,0,0,84,5.63V4.92l-.75-.51c-1.18-.81-3-1.49-7.15-2.62-2.25-.62-7.68-1-8.5-.57m-41,.37c.52.12.55.16.76,1a2.46,2.46,0,0,0,.67,1.42,2,2,0,0,1,.43,1.2c.17,1.19.28,1.52.69,2l.37.41V9.26c0,1.5,0,1.64-.21,1.86a2.87,2.87,0,0,0-.74,1.68c-.07.41-.14.9-.16,1.08a1.08,1.08,0,0,1-.31.55A2.64,2.64,0,0,0,27.4,16a1.66,1.66,0,0,1-.48,1l-.36.38H19L18.66,17a1.57,1.57,0,0,1-.47-.83,3.4,3.4,0,0,0-.72-1.68c-.25-.25-.31-.43-.44-1.3a2.91,2.91,0,0,0-.72-1.89c-.48-.52-.44-3.49.06-4a3.21,3.21,0,0,0,.68-1.91c.15-.89.19-1,.54-1.38a2.11,2.11,0,0,0,.55-1.21c.2-.9.35-1.11.79-1.17.66-.08,7.34-.06,7.7,0m21.8,4.18c.07,5.32.19,6.46.79,7.86l.2.48.34-.32a6.64,6.64,0,0,0,1.48-3.88c.34-2.6.37-2.76.61-3.11a4.68,4.68,0,0,0,.7-1.95A2.18,2.18,0,0,1,53,3.64a4.88,4.88,0,0,0,.77-1.86c0-.24,1.08-.3,5-.26l3.32,0,.35.34a1.48,1.48,0,0,1,.47.9,2.66,2.66,0,0,0,.67,1.53c.3.33.35.47.47,1.35.15,1.16.24,1.39.66,1.87l.32.37.13,2a11.54,11.54,0,0,0,.71,4,4.54,4.54,0,0,1,.3,1.92l.06,1.37-4.54.06c-5.57.08-6.6.18-8,.79l-.52.23.55.42a6.59,6.59,0,0,0,3.85,1.38c2.07.24,2.74.37,2.95.55a3.65,3.65,0,0,0,1.79.68,3.81,3.81,0,0,1,1.58.62,3.08,3.08,0,0,0,.75.4,1.28,1.28,0,0,1,.45.17l.31.18-.07.85c0,.47-.12,1.76-.2,2.88-.13,2-.18,2.21-.48,2.22S64.05,30,64,31.29c0,.39-.06.45-.33.54a.91.91,0,0,0-.7.67c0,.25-.12.29-.48.34-2,.24-2.5.39-2.69.82-.12.26-.14.26-2.83.44l-2.32.17c-.75.06-.95-.06-1.11-.71a3.06,3.06,0,0,0-.45-.88,3.14,3.14,0,0,1-.57-1.49c-.22-1.07-.37-1.47-.63-1.68s-.32-.77-.52-2.46a10.07,10.07,0,0,0-.59-2.95c-.13-.3-.36-.88-.51-1.27a4.58,4.58,0,0,0-.53-1l-.26-.3-.53.24c-.94.44-1.33,1.69-1.53,4.86l-.12,1.85-.33.37a3.56,3.56,0,0,0-.7,2.17c-.07.75-.09.83-.37,1a2.35,2.35,0,0,0-.71,1.49,2.12,2.12,0,0,1-.16.58c-.2.33-5.88,0-6.18-.37a3,3,0,0,0-1.94-.77c-.59,0-.85-.12-1-.25a4.87,4.87,0,0,0-.82-.79c-.16-.12-.24-.35-.35-1a2.74,2.74,0,0,0-.6-1.68c-.3-.36-.39-.82-.56-2.77a17.71,17.71,0,0,0-.3-2.14C33,23,33,22.84,33.77,22.48a5,5,0,0,0,1-.58,2.3,2.3,0,0,1,1.15-.45,5.08,5.08,0,0,0,2-.74c.21-.19.49-.24,3-.56a6.78,6.78,0,0,0,4-1.53l.27-.26L45,18.22c-.87-.61-2.81-.83-8.13-.91l-4.2-.06,0-7.75c0-4.26,0-7.81,0-7.88s1.71-.12,7.89-.12h7.83l.07,4.27M72.24,1.91a11.28,11.28,0,0,0,3.6.63c1.41.13,1.73.18,2,.35a4.36,4.36,0,0,0,2.52.86,1.26,1.26,0,0,1,.81.4,2.22,2.22,0,0,0,.94.5c1.19.33,1.12.12.93,2.78,0,.78-.12,1.85-.16,2.37,0,.91-.07,1-.33,1.11s-.58.85-.72,2.09c-.06.52-.11.95-.12.95a1.49,1.49,0,0,0-.93.75l-.11.35-1,.1c-1.26.14-1.64.27-2,.7a.85.85,0,0,1-.59.35c-.71,0-3.47.21-4.34.33l-1,.14-.33-.36A3.82,3.82,0,0,1,70.49,15a11,11,0,0,0-.78-2.37,4.32,4.32,0,0,1-.4-1.12c-.29-1.69-.64-3.33-.82-3.9-.33-1.09-.63-5.93-.37-6a13.72,13.72,0,0,1,4.12.35M3.4,72.5a5.71,5.71,0,0,0-1.35.5,3.67,3.67,0,0,1-1.43.46c-.46.05-.62.1-.62.21,0,.48,3-.06,3.49-.63l.31-.35H5.1c1.28,0,1.3,0,1.62.29a3.24,3.24,0,0,0,2.06.77c.91.11,1.05.15,1.23.39a2.34,2.34,0,0,0,1.5.71,1.67,1.67,0,0,1,1,.46l.34.33,0,4c0,4.59,0,4.38-.46,4.53a3.16,3.16,0,0,0-.83.46,2.11,2.11,0,0,1-.78.41,12.68,12.68,0,0,0-2.47.85c-1.28.8-5,.73-6.64-.11a3.38,3.38,0,0,0-1.16-.37l-.54,0v.92H.38A7.06,7.06,0,0,1,2.91,87l.64.33H6.76L7.41,87a9.83,9.83,0,0,1,1.76-.61,5.39,5.39,0,0,0,1.58-.58A6.25,6.25,0,0,1,12,85.25l.82-.26.32-.58.33-.59v-3.9c0-4.51-.12-5.21-.87-5.23A4.31,4.31,0,0,1,11.09,74a3.34,3.34,0,0,0-1.3-.49,9,9,0,0,1-1.67-.59A9.1,9.1,0,0,0,3.4,72.5m35.6,0a3.42,3.42,0,0,0-1.56.48,3.21,3.21,0,0,1-.78.36c-2.17.59-2.48,1.07-3.6,5.55s-1,5.85.51,6.39a9.22,9.22,0,0,1,1.33.61,6,6,0,0,0,1.5.54,10,10,0,0,1,1.7.59l.75.36H42l.8-.37a10.79,10.79,0,0,1,1.74-.59,5.71,5.71,0,0,0,1.5-.55,5.67,5.67,0,0,1,1.07-.5c1.67-.49,1.89-1.41,1.08-4.54-.13-.52-.3-1.35-.38-1.85a7.27,7.27,0,0,0-.66-2.44,7.52,7.52,0,0,1-.44-1.13c-.3-1.16-.79-1.6-2.18-2a4.89,4.89,0,0,1-1.12-.45A8.64,8.64,0,0,0,39,72.46m2.86.31a.91.91,0,0,1,.22.29,3.14,3.14,0,0,0,2.06.69c.86.07.88.08,1,.38a1.26,1.26,0,0,0,.75.73c.24.1.26.18.37,1.12.14,1.17.28,1.57.71,2l.3.29.12,1.9c.06,1,.15,2.1.19,2.35.23,1.18.22,1.33-.12,1.68a3.33,3.33,0,0,1-1.41.89,12.35,12.35,0,0,0-2.36.79c-1.5.78-5.45.79-6.52,0a9,9,0,0,0-2.25-.79,2.21,2.21,0,0,1-1.06-.58,8.16,8.16,0,0,0-.72-.57c-.16-.09-.16-.14,0-.85.09-.41.2-.94.25-1.16s.16-1.19.24-2.14l.16-1.73.39-.58a3,3,0,0,0,.51-1.31c.2-1.2.24-1.32.51-1.45a1.31,1.31,0,0,0,.63-.66c.09-.18.26-.23,1.09-.33a3.17,3.17,0,0,0,2-.81,6.6,6.6,0,0,1,2.93-.15M9.15,89.16a12.84,12.84,0,0,0-2.45.44c-.36.11-1.42.32-2.35.48a7.75,7.75,0,0,0-2.49.66,4,4,0,0,1-1.32.43c-.45,0-.54.08-.54.23,0,.54,3,0,3.46-.64.19-.25.23-.26,2.09-.36a11.53,11.53,0,0,0,4.14-.72,3.48,3.48,0,0,1,1.94-.29h1.3l-.06,2.09c0,1.82-.09,2.15-.26,2.48-.4.78-.55,1.73-.88,5.4l-.06.63H12c.29,0,.31,0,.31-.36a10.16,10.16,0,0,1,.29-1.52,37.82,37.82,0,0,0,.91-7.74v-1l-.3-.16a19.62,19.62,0,0,0-4-.08m9.26,0c-.26.08-.37.19-.49.52s-.33.75-.54,1.15a14.05,14.05,0,0,0-.72,1.75c-.19.56-.46,1.29-.6,1.63C15.37,95.9,15.3,100,16,100c.24,0,.24,0,.15-.58,0-.31-.08-1.25-.08-2.08V95.82l.32-.36a3.68,3.68,0,0,0,.69-2.09c.06-.62.11-.77.36-1a2.91,2.91,0,0,0,.72-1.62,1.28,1.28,0,0,1,.42-.82,1.67,1.67,0,0,0,.34-.44,30.68,30.68,0,0,1,3.8-.1h3.8l.4.41a1.45,1.45,0,0,1,.51,1,2.37,2.37,0,0,0,.69,1.52c.27.22.31.34.4,1.1a3.56,3.56,0,0,0,.72,2.11l.31.3v1.32c0,.73,0,1.67-.08,2.09-.08.78-.08.78.16.78.75,0,.54-4.29-.3-6.28-.16-.37-.37-.94-.47-1.27a16.81,16.81,0,0,0-1.53-3.17,84.61,84.61,0,0,0-8.91-.07m13.91,0c-.52.38-.06,6.18.72,9.14a7.78,7.78,0,0,1,.26,1.27c0,.3,0,.33.31.33h.31l-.06-.53c0-.28-.13-1.24-.22-2.12A10.86,10.86,0,0,0,33,94a14.49,14.49,0,0,1-.39-3.88v-.73h1.27a3.75,3.75,0,0,1,2,.31,11.18,11.18,0,0,0,4.09.69l1.92.11.33.34a3.53,3.53,0,0,0,2.2.71c.71.06.79.09.94.34s.65.56,1.47.71l.64.11.16.61a1.58,1.58,0,0,1,.07,1,13.3,13.3,0,0,0-.21,1.65c-.25,3-.27,3.16-.43,3.35-.31.34-.22.71.19.71s.35,0,.35-.38a18.38,18.38,0,0,1,.61-3.32A7.5,7.5,0,0,0,48.53,94c0-1.31,0-1.27-1-1.73a4.46,4.46,0,0,1-1-.51,4.47,4.47,0,0,0-1.3-.49,11.57,11.57,0,0,1-1.78-.64,6,6,0,0,0-2.15-.57A20.13,20.13,0,0,1,39,89.63c-1.71-.49-6.21-.75-6.71-.38m41.87.93a4.16,4.16,0,0,0-1.75.56,5.47,5.47,0,0,1-1.19.46c-.76.2-1.26.46-1.26.67a1.7,1.7,0,0,1-.33.44,2,2,0,0,0-.51,1.14A9.34,9.34,0,0,1,68.62,95a7.15,7.15,0,0,0-.58,2.4c-.13.91-.27,1.86-.3,2.12l-.07.48H68c.33,0,.34,0,.46-.58.86-4.24,1-4.91,1.26-5.34a5.61,5.61,0,0,0,.38-.9c.3-1.06.81-1.55,1.67-1.63,1.11-.11,1.67-.31,2-.7l.27-.35h3.34l.12.26c.17.38.88.64,2.09.77,1,.12,1.06.13,1.13.41a.87.87,0,0,0,.69.69c.27.06.29.09.35.74.14,1.55.38,2.28.82,2.48.23.1.24.17.39,3L83,100h.34c.41,0,.43-.12.19-1.13-.08-.35-.24-1.26-.35-2-.25-1.69-.3-1.89-.63-2.37a4.07,4.07,0,0,1-.42-1.09A2.5,2.5,0,0,0,80,91.12a4.09,4.09,0,0,1-1-.4,9.5,9.5,0,0,0-4.71-.54"/><path id="path4" class="cls-5" d="M1.29,1.57a1,1,0,0,0-.5.29.76.76,0,0,1-.51.24H0V18.2H.24a5.76,5.76,0,0,0,1.13-.3c1.27-.42,2.35-.51,7.22-.57l4.34-.06-.06-2a6.39,6.39,0,0,0-.31-2.58A7.65,7.65,0,0,1,12,10.15c-.26-2.64-.3-2.87-.6-3.16a4.43,4.43,0,0,1-.71-2.19,1.54,1.54,0,0,0-.45-1,4.38,4.38,0,0,1-.76-1.9c0-.15-.14-.22-.48-.27s-7.26-.08-7.71,0m17.64,0c-.44.06-.59.27-.79,1.17A2.11,2.11,0,0,1,17.59,4c-.35.37-.39.49-.54,1.38a3.21,3.21,0,0,1-.68,1.91c-.5.54-.54,3.51-.06,4A2.91,2.91,0,0,1,17,13.16c.13.87.19,1.05.44,1.3a3.4,3.4,0,0,1,.72,1.68,1.57,1.57,0,0,0,.47.83l.35.33h7.55l.36-.38a1.66,1.66,0,0,0,.48-1,2.64,2.64,0,0,1,.73-1.52,1.08,1.08,0,0,0,.31-.55c0-.18.09-.67.16-1.08a2.87,2.87,0,0,1,.74-1.68c.19-.22.21-.36.21-1.86V7.63l-.37-.41c-.41-.45-.52-.78-.69-2a2,2,0,0,0-.43-1.2,2.46,2.46,0,0,1-.67-1.42c-.21-.88-.24-.92-.76-1-.36-.08-7-.1-7.7,0m13.71.05c0,.07,0,3.62,0,7.88l0,7.75,4.2.06c5.32.08,7.26.3,8.13.91l.21.14-.27.26a6.78,6.78,0,0,1-4,1.53c-2.52.32-2.8.37-3,.56a5.08,5.08,0,0,1-2,.74,2.3,2.3,0,0,0-1.15.45,5,5,0,0,1-1,.58c-.79.36-.82.49-.48,1.83a17.71,17.71,0,0,1,.3,2.14c.17,1.95.26,2.41.56,2.77a2.74,2.74,0,0,1,.6,1.68c.11.65.19.88.35,1a4.87,4.87,0,0,1,.82.79c.11.13.37.2,1,.25a3,3,0,0,1,1.94.77c.3.36,6,.7,6.18.37a2.12,2.12,0,0,0,.16-.58A2.35,2.35,0,0,1,45.87,32c.28-.19.3-.27.37-1a3.56,3.56,0,0,1,.7-2.17l.33-.37.12-1.85c.2-3.17.59-4.42,1.53-4.86l.53-.24.26.3a4.58,4.58,0,0,1,.53,1c.15.39.38,1,.51,1.27a10.07,10.07,0,0,1,.59,2.95c.2,1.69.33,2.3.52,2.46s.41.61.63,1.68a3.14,3.14,0,0,0,.57,1.49,3.06,3.06,0,0,1,.45.88c.16.65.36.77,1.11.71l2.32-.17c2.69-.18,2.71-.18,2.83-.44.19-.43.69-.58,2.69-.82.36-.05.43-.09.48-.34a.91.91,0,0,1,.7-.67c.27-.09.31-.15.33-.54.08-1.26.44-2.59.7-2.59s.35-.23.48-2.22c.08-1.12.17-2.41.2-2.88l.07-.85-.31-.18a1.28,1.28,0,0,0-.45-.17,3.08,3.08,0,0,1-.75-.4,3.81,3.81,0,0,0-1.58-.62,3.65,3.65,0,0,1-1.79-.68c-.21-.18-.88-.31-2.95-.55a6.59,6.59,0,0,1-3.85-1.38l-.55-.42.52-.23c1.37-.61,2.4-.71,8-.79l4.54-.06-.06-1.37a4.54,4.54,0,0,0-.3-1.92,11.54,11.54,0,0,1-.71-4l-.13-2-.32-.37c-.42-.48-.51-.71-.66-1.87-.12-.88-.17-1-.47-1.35a2.66,2.66,0,0,1-.67-1.53,1.48,1.48,0,0,0-.47-.9l-.35-.34-3.32,0c-3.89,0-5,0-5,.26A4.88,4.88,0,0,1,53,3.64a2.18,2.18,0,0,0-.47,1.21,4.68,4.68,0,0,1-.7,2c-.24.35-.27.51-.61,3.11a6.64,6.64,0,0,1-1.48,3.88l-.34.32-.2-.48c-.6-1.4-.72-2.54-.79-7.86L48.36,1.5H40.53c-6.18,0-7.85,0-7.89.12m35.48-.06c-.26.11,0,4.95.37,6,.18.57.53,2.21.82,3.9a4.32,4.32,0,0,0,.4,1.12A11,11,0,0,1,70.49,15a3.82,3.82,0,0,0,.88,1.32l.33.36,1-.14c.87-.12,3.63-.33,4.34-.33a.85.85,0,0,0,.59-.35c.39-.43.77-.56,2-.7l1-.1.11-.35a1.49,1.49,0,0,1,.93-.75s.06-.43.12-.95c.14-1.24.36-1.88.72-2.09s.28-.2.33-1.11c0-.52.11-1.59.16-2.37.19-2.66.26-2.45-.93-2.78a2.22,2.22,0,0,1-.94-.5,1.26,1.26,0,0,0-.81-.4,4.36,4.36,0,0,1-2.52-.86c-.22-.17-.54-.22-2-.35a11.28,11.28,0,0,1-3.6-.63,13.72,13.72,0,0,0-4.12-.35M0,26.6v8.1H.27a4.72,4.72,0,0,0,.9-.2A16.43,16.43,0,0,1,5,34l1.51-.08.46-.36a3.25,3.25,0,0,1,2-.67c.69-.08.92-.14,1-.29a3,3,0,0,1,1.63-.81,1.51,1.51,0,0,0,.95-.43l.31-.31,0-3.86c0-4.81.11-4.4-.85-4.69A3.32,3.32,0,0,1,10.91,22a2.32,2.32,0,0,0-1.26-.49,4.6,4.6,0,0,1-2-.75c-.2-.19-.6-.26-3-.56-1.95-.24-3.26-.73-3.91-1.44a.71.71,0,0,0-.48-.21H0v8.1M0,53v17.6H12.79l.05-.42c0-.24.07-2.11.1-4.18.07-5.29.36-7.3,1.1-7.6a5,5,0,0,0,.51-.29c.4-.28.41-.27.68.27a15.77,15.77,0,0,1,.77,5.2,1,1,0,0,0,.36.72,3,3,0,0,1,.68,1.9c.11,1,.15,1.17.42,1.29A2.18,2.18,0,0,1,18.17,69c.1.69.25.72,2.48.59.88,0,1.94-.11,2.36-.12.72,0,.78,0,1-.35a3,3,0,0,1,2.06-.68c1-.08,1.2-.12,1.2-.33A.84.84,0,0,1,28,67.4l.38-.11.12-.92c.15-1.22.35-1.82.71-2.1l.29-.23.15-2a14.17,14.17,0,0,1,.55-3.58c.08-.14,0-.23-.14-.4a1.33,1.33,0,0,1-.31-.52c-.07-.32-.35-.49-.85-.49a2.3,2.3,0,0,1-1.52-.68c-.16-.27-.23-.3-.95-.36a3.76,3.76,0,0,1-2.34-.71L23.77,55,22.51,55a12.49,12.49,0,0,1-4.66-.76L17.4,54v-.62c0-.62,0-.64.32-.78,1-.48,2-.64,4.46-.77l1.93-.11.24-.28c.34-.41.9-.6,2.09-.73.87-.1,1-.15,1.11-.32.19-.41.74-.65,1.86-.82.32,0,.37-.09.43-.39a1.48,1.48,0,0,1,.25-.57c.13-.16.16-.28.1-.4a12.42,12.42,0,0,1-.55-3.43l-.16-2-.33-.32c-.34-.33-.51-.85-.7-2.13-.09-.59-.27-.86-.62-.95a1.45,1.45,0,0,1-.43-.19,2.24,2.24,0,0,0-.59-.26,3.21,3.21,0,0,1-.8-.34A10.17,10.17,0,0,0,23.7,38c-1.07-.21-2.22-.46-2.55-.56a7.72,7.72,0,0,0-2.36-.21l-.47,0-.11.57a2.44,2.44,0,0,1-.74,1.54c-.21.09-.26.21-.36,1-.19,1.3-.37,1.86-.7,2.14s-.37.43-.52,2.53a10.46,10.46,0,0,1-.64,3.49L15,49l-.29-.15C13.27,48.1,13,47,12.91,40.6L12.85,37,9.4,36.88a22.64,22.64,0,0,1-5.7-.48c-.19-.06-.87-.25-1.5-.41a8.76,8.76,0,0,1-1.37-.45A1.13,1.13,0,0,0,.3,35.4H0V53M3.49,73c-.42.46-1,.65-2.37.72L0,73.82V85.37l.54,0a3.38,3.38,0,0,1,1.16.37c1.66.84,5.36.91,6.64.11A12.68,12.68,0,0,1,10.81,85a2.11,2.11,0,0,0,.78-.41,3.16,3.16,0,0,1,.83-.46c.51-.15.49.06.46-4.53l0-4-.34-.33a1.67,1.67,0,0,0-1-.46,2.34,2.34,0,0,1-1.5-.71c-.18-.24-.32-.28-1.23-.39A3.24,3.24,0,0,1,6.72,73c-.32-.28-.34-.29-1.62-.29H3.8L3.49,73m35.44-.12a3.17,3.17,0,0,1-2,.81c-.83.1-1,.15-1.09.33a1.31,1.31,0,0,1-.63.66c-.27.13-.31.25-.51,1.45a3,3,0,0,1-.51,1.31l-.39.58-.16,1.73c-.08.95-.19,1.91-.24,2.14s-.16.75-.25,1.16c-.16.71-.16.76,0,.85a8.16,8.16,0,0,1,.72.57,2.21,2.21,0,0,0,1.06.58,9,9,0,0,1,2.25.79c1.07.76,5,.75,6.52,0a12.35,12.35,0,0,1,2.36-.79,3.33,3.33,0,0,0,1.41-.89c.34-.35.35-.5.12-1.68,0-.25-.13-1.3-.19-2.35l-.12-1.9L47,78c-.43-.4-.57-.8-.71-2-.11-.94-.13-1-.37-1.12a1.26,1.26,0,0,1-.75-.73c-.13-.3-.15-.31-1-.38a3.14,3.14,0,0,1-2.06-.69c-.18-.35-.26-.36-1.6-.37-1.18,0-1.29,0-1.55.23M9.65,89.69a11.3,11.3,0,0,1-4.1.71c-1.86.1-1.9.11-2.09.36a4.59,4.59,0,0,1-3,.83H0V100H11.67l.06-.63c.33-3.67.48-4.62.88-5.4.17-.33.21-.66.26-2.48l.06-2.09H11.59a3.52,3.52,0,0,0-1.94.29m9.25-.2a1.67,1.67,0,0,1-.34.44,1.28,1.28,0,0,0-.42.82,2.91,2.91,0,0,1-.72,1.62c-.25.23-.3.38-.36,1a3.68,3.68,0,0,1-.69,2.09c-.38.43-.5,2-.27,3.65l.13.88H29.37l.13-1.17c.19-1.74.08-3-.3-3.34a3.54,3.54,0,0,1-.7-2.09c-.09-.76-.13-.88-.4-1.1a2.37,2.37,0,0,1-.69-1.52,1.45,1.45,0,0,0-.51-1l-.4-.41H22.7a30.68,30.68,0,0,0-3.8.1m13.7.63A14.49,14.49,0,0,0,33,94a9.49,9.49,0,0,1,.6,2.89c.06.63.16,1.59.22,2.12l.12,1h13v-.27a.74.74,0,0,1,.16-.44c.16-.19.18-.34.43-3.35a13.3,13.3,0,0,1,.21-1.65,1.58,1.58,0,0,0-.07-1l-.16-.61-.64-.11c-.82-.15-1.26-.36-1.47-.71s-.23-.28-.94-.34a3.53,3.53,0,0,1-2.2-.71l-.33-.34L40,90.39a11.18,11.18,0,0,1-4.09-.69,3.75,3.75,0,0,0-2-.31H32.6v.73m41.15.72c-.3.39-.86.59-2,.7-.86.08-1.37.57-1.67,1.63a5.61,5.61,0,0,1-.38.9,11.83,11.83,0,0,0-.68,2.57c-.24,1.16-.48,2.28-.54,2.5a2.64,2.64,0,0,0-.12.62V100H83L83,98.82c-.15-2.81-.16-2.88-.39-3-.44-.2-.68-.93-.82-2.48-.06-.65-.08-.68-.35-.74a.87.87,0,0,1-.69-.69c-.07-.28-.09-.29-1.13-.41-1.21-.13-1.92-.39-2.09-.77l-.12-.26H74l-.27.35"/></g></svg>