<svg id="Layer_1" data-name="Layer 1" xmlns="http://www.w3.org/2000/svg" viewBox="0 0 100 100"><defs><style>.cls-1{fill-rule:evenodd;}</style></defs><title>qr code eyes 15</title><path id="outerEye" class="cls-1" d="M0,0,8.26,91.74A8.26,8.26,0,0,0,16.52,100H100V16.52a8.26,8.26,0,0,0-8.26-8.26ZM86.89,86.89H29.63a8.26,8.26,0,0,1-8.26-8.26L13.11,13.11l65.52,8.26a8.26,8.26,0,0,1,8.26,8.26Z"/><path id="innerEye" class="cls-1" d="M26.21,26.21l8.26,39.32a8.26,8.26,0,0,0,8.27,8.26H73.79V42.74a8.26,8.26,0,0,0-8.26-8.27Z"/></svg>