<svg id="Layer_1" data-name="Layer 1" xmlns="http://www.w3.org/2000/svg" viewBox="0 0 100 100"><defs><style>.cls-1{fill-rule:evenodd;}</style></defs><title>qr code eyes 6</title><path id="outerEye" class="cls-1" d="M0,9V91a9,9,0,0,0,9,9H91a9,9,0,0,0,9-9V9a9,9,0,0,0-9-9H9A9,9,0,0,0,0,9Zm76.71,76.7H23.29a9,9,0,0,1-9-9V23.29a9,9,0,0,1,9-9H76.71a9,9,0,0,1,9,9V76.71A9,9,0,0,1,76.71,85.71Z"/><path id="innerEye" class="cls-1" d="M28.57,37.58V62.42a9,9,0,0,0,9,9H62.42a9,9,0,0,0,9-9V37.58a9,9,0,0,0-9-9H37.58A9,9,0,0,0,28.57,37.58Z"/></svg>